<mxfile host="app.diagrams.net" modified="2023-10-12T12:29:47.361Z" agent="Mozilla/5.0 (Windows NT 10.0; Win64; x64) AppleWebKit/537.36 (KHTML, like Gecko) Chrome/117.0.0.0 Safari/537.36" etag="nxS0ipBF-Iur2OmaVNsO" version="22.0.4" type="github">
  <diagram name="第 1 页" id="8dmHlYvgoi_x5xGu6nhz">
    <mxGraphModel dx="1562" dy="830" grid="1" gridSize="10" guides="1" tooltips="1" connect="1" arrows="1" fold="1" page="1" pageScale="1" pageWidth="827" pageHeight="1169" math="0" shadow="0">
      <root>
        <mxCell id="0" />
        <mxCell id="1" parent="0" />
        <mxCell id="SyNY362n3wv_6hlgljLO-1" value="&lt;font face=&quot;宋体&quot;&gt;系统功能&lt;/font&gt;" style="rounded=0;whiteSpace=wrap;html=1;" parent="1" vertex="1">
          <mxGeometry x="316" y="90" width="210" height="30" as="geometry" />
        </mxCell>
        <mxCell id="SyNY362n3wv_6hlgljLO-3" value="&lt;font face=&quot;宋体&quot;&gt;档案信息管理&lt;/font&gt;" style="rounded=0;whiteSpace=wrap;html=1;" parent="1" vertex="1">
          <mxGeometry x="230" y="201" width="25" height="100" as="geometry" />
        </mxCell>
        <mxCell id="SyNY362n3wv_6hlgljLO-4" value="" style="endArrow=none;html=1;rounded=0;" parent="1" edge="1">
          <mxGeometry width="50" height="50" relative="1" as="geometry">
            <mxPoint x="123" y="160" as="sourcePoint" />
            <mxPoint x="723" y="160" as="targetPoint" />
          </mxGeometry>
        </mxCell>
        <mxCell id="SyNY362n3wv_6hlgljLO-7" value="&lt;font face=&quot;宋体&quot;&gt;成绩管理&lt;/font&gt;" style="rounded=0;whiteSpace=wrap;html=1;" parent="1" vertex="1">
          <mxGeometry x="111" y="200" width="25" height="100" as="geometry" />
        </mxCell>
        <mxCell id="SyNY362n3wv_6hlgljLO-30" value="&lt;font face=&quot;宋体&quot;&gt;课程管理&lt;/font&gt;" style="rounded=0;whiteSpace=wrap;html=1;" parent="1" vertex="1">
          <mxGeometry x="350" y="201" width="25" height="100" as="geometry" />
        </mxCell>
        <mxCell id="SyNY362n3wv_6hlgljLO-42" value="&lt;font face=&quot;宋体&quot;&gt;用户管理&lt;/font&gt;" style="rounded=0;whiteSpace=wrap;html=1;" parent="1" vertex="1">
          <mxGeometry x="469" y="201" width="25" height="100" as="geometry" />
        </mxCell>
        <mxCell id="SyNY362n3wv_6hlgljLO-54" value="&lt;font face=&quot;宋体&quot;&gt;系统管理&lt;/font&gt;" style="rounded=0;whiteSpace=wrap;html=1;" parent="1" vertex="1">
          <mxGeometry x="590" y="201" width="25" height="100" as="geometry" />
        </mxCell>
        <mxCell id="I8LIH_9Fkx65qxhpIAAy-1" value="&lt;font face=&quot;宋体&quot;&gt;公告管理&lt;/font&gt;" style="rounded=0;whiteSpace=wrap;html=1;" parent="1" vertex="1">
          <mxGeometry x="710" y="200" width="25" height="100" as="geometry" />
        </mxCell>
        <mxCell id="6qasTRs2RFWN2uiFDBPl-1" value="" style="endArrow=none;html=1;rounded=0;" edge="1" parent="1">
          <mxGeometry width="50" height="50" relative="1" as="geometry">
            <mxPoint x="420.5" y="159" as="sourcePoint" />
            <mxPoint x="420.5" y="120" as="targetPoint" />
          </mxGeometry>
        </mxCell>
        <mxCell id="6qasTRs2RFWN2uiFDBPl-2" value="" style="endArrow=none;html=1;rounded=0;" edge="1" parent="1">
          <mxGeometry width="50" height="50" relative="1" as="geometry">
            <mxPoint x="123" y="199" as="sourcePoint" />
            <mxPoint x="123" y="160" as="targetPoint" />
          </mxGeometry>
        </mxCell>
        <mxCell id="6qasTRs2RFWN2uiFDBPl-3" value="" style="endArrow=none;html=1;rounded=0;" edge="1" parent="1">
          <mxGeometry width="50" height="50" relative="1" as="geometry">
            <mxPoint x="242" y="199" as="sourcePoint" />
            <mxPoint x="242" y="160" as="targetPoint" />
          </mxGeometry>
        </mxCell>
        <mxCell id="6qasTRs2RFWN2uiFDBPl-4" value="" style="endArrow=none;html=1;rounded=0;" edge="1" parent="1">
          <mxGeometry width="50" height="50" relative="1" as="geometry">
            <mxPoint x="362" y="199" as="sourcePoint" />
            <mxPoint x="362" y="160" as="targetPoint" />
          </mxGeometry>
        </mxCell>
        <mxCell id="6qasTRs2RFWN2uiFDBPl-5" value="" style="endArrow=none;html=1;rounded=0;" edge="1" parent="1">
          <mxGeometry width="50" height="50" relative="1" as="geometry">
            <mxPoint x="481" y="199" as="sourcePoint" />
            <mxPoint x="481" y="160" as="targetPoint" />
          </mxGeometry>
        </mxCell>
        <mxCell id="6qasTRs2RFWN2uiFDBPl-6" value="" style="endArrow=none;html=1;rounded=0;" edge="1" parent="1">
          <mxGeometry width="50" height="50" relative="1" as="geometry">
            <mxPoint x="602" y="199" as="sourcePoint" />
            <mxPoint x="602" y="160" as="targetPoint" />
          </mxGeometry>
        </mxCell>
        <mxCell id="6qasTRs2RFWN2uiFDBPl-7" value="" style="endArrow=none;html=1;rounded=0;" edge="1" parent="1">
          <mxGeometry width="50" height="50" relative="1" as="geometry">
            <mxPoint x="722" y="199" as="sourcePoint" />
            <mxPoint x="722" y="160" as="targetPoint" />
          </mxGeometry>
        </mxCell>
      </root>
    </mxGraphModel>
  </diagram>
</mxfile>
